<svg id="address" x="0px" y="0px" viewBox="0 0 40 45">
	<path d="M20.85,0.63c0.87,0.14,1.76,0.21,2.62,0.43c6.67,1.73,10.97,5.93,12.64,12.6c1.28,5.14,0.08,9.89-3.11,14.09
		c-4.17,5.5-8.4,10.94-12.6,16.41c-0.47,0.61-0.85,0.61-1.33-0.01c-4.21-5.45-8.42-10.89-12.62-16.35c-2.5-3.25-3.66-6.95-3.54-11.05
		C3.09,10.36,7.4,4.24,13.34,1.89c1.61-0.64,3.26-1.06,4.98-1.2c0.1-0.01,0.19-0.04,0.29-0.07C19.36,0.63,20.1,0.63,20.85,0.63z
		M19.72,42.9c0.08-0.09,0.13-0.14,0.17-0.2c4.12-5.37,8.31-10.69,12.35-16.12c2.88-3.88,3.75-8.27,2.54-12.98
		C32.6,5.1,23.9,0.13,15.46,2.52C8.92,4.37,4.28,10.4,4.19,17.2c-0.05,3.71,1.11,7.02,3.38,9.96c2.41,3.11,4.81,6.23,7.21,9.35
		C16.41,38.62,18.05,40.73,19.72,42.9z"/>
	<path d="M8.04,17.65c0.04-2.86,0.83-5.22,2.42-7.3c0.19-0.24,0.4-0.41,0.72-0.36c0.5,0.09,0.67,0.64,0.32,1.11
		c-0.75,0.99-1.33,2.07-1.7,3.25c-1.96,6.19,2.32,12.75,8.77,13.43c5.6,0.59,10.58-3.24,11.44-8.81c0.89-5.76-3.33-11.23-9.14-11.84
		c-2.74-0.29-5.22,0.39-7.42,2.04c-0.29,0.22-0.59,0.37-0.94,0.14c-0.38-0.26-0.36-0.76,0.05-1.08c1.28-1.01,2.7-1.72,4.28-2.1
		c6.58-1.6,12.98,2.46,14.34,9.09c1.31,6.36-3.13,12.75-9.54,13.75c-6.55,1.03-12.47-3.3-13.49-9.86
		C8.08,18.56,8.07,17.98,8.04,17.65z"/>
</svg>
