<svg id="at" x="0px" y="0px" viewBox="0 0 40 45">
	<path d="M28.16,29.26c-4.08,4.93-11.35,5.01-15.59,0.78c-3.96-3.95-4.13-10.29-0.43-14.48c3.88-4.39,11.32-4.94,15.75,0.01
		c0-0.72,0-1.38,0-2.05c0-0.88,0.53-1.47,1.3-1.48c0.79-0.01,1.33,0.6,1.33,1.5c0,4.67,0,9.34,0,14.02c0,1.69,1.3,2.98,2.95,2.89
		c1.22-0.07,2.1-0.71,2.52-1.85c1.54-4.19,1.55-8.39-0.18-12.5c-2.39-5.66-6.67-9.15-12.68-10.34C13.98,3.93,4.98,10.1,3.22,19.29
		c-1.77,9.24,4.15,18.17,13.33,20.03c4.19,0.85,8.17,0.21,11.9-1.88c0.16-0.09,0.31-0.18,0.46-0.26c0.64-0.33,1.4-0.13,1.76,0.47
		c0.37,0.62,0.2,1.4-0.44,1.79c-1.33,0.83-2.75,1.47-4.24,1.94C15.17,44.77,3.75,38.44,0.9,27.46C-1.66,17.62,3.64,7.43,13.14,3.93
		c11.46-4.22,24,2.88,26.24,14.87c0.67,3.58,0.39,7.09-0.84,10.52c-0.82,2.28-2.79,3.75-5.07,3.77c-2.38,0.02-4.35-1.34-5.24-3.64
		C28.22,29.4,28.2,29.36,28.16,29.26z M20.01,30.46c4.31,0.01,7.88-3.55,7.88-7.86c0-4.35-3.52-7.92-7.82-7.92
		c-4.42,0-7.95,3.49-7.96,7.9C12.1,26.91,15.65,30.45,20.01,30.46z"/>
</svg>
