<svg id="care" x="0px" y="0px" viewBox="0 0 20 20">
	<path d="M1.95,9.47c0-0.47-0.01-0.86,0-1.25c0.01-0.61,0.27-0.87,0.88-0.89c0.19,0,0.37,0,0.62,0C3.4,7.22,3.37,7.15,3.33,7.08
		c-0.93-1.57,0.06-3.4,1.9-3.42c2.12-0.03,4.25,0,6.38-0.02c0.37,0,0.77-0.05,1.1-0.2c0.69-0.31,1.03-0.9,1.08-1.67
		c0.01-0.2,0.11-0.51,0.26-0.57c0.15-0.06,0.43,0.09,0.59,0.22c0.56,0.49,1.1,1,1.64,1.51c1.24,1.2,1.34,2.8,0.27,4.16
		c-0.04,0.05-0.08,0.11-0.18,0.24c0.34,0,0.61-0.01,0.88,0c0.53,0.02,0.8,0.29,0.81,0.82c0.01,0.42,0,0.84,0,1.32
		c0.24,0,0.44-0.01,0.63,0c0.63,0.04,1.1,0.45,1.11,1.07c0.02,1.6,0.07,3.21-0.03,4.8c-0.11,1.79-1.66,3.23-3.44,3.3
		c-1.4,0.05-2.79,0.02-4.19,0.02c-0.27,0-0.48-0.09-0.47-0.39c0.01-0.3,0.23-0.38,0.49-0.38c1.21,0,2.42,0,3.62,0
		c2.04,0,3.25-1.22,3.25-3.26c0-1.25,0-2.5,0-3.76c0-0.56-0.08-0.63-0.64-0.63c-5.59,0-11.18,0-16.77,0c-0.58,0-0.65,0.07-0.65,0.66
		c0,1.3-0.01,2.59,0,3.89c0.01,1.84,1.26,3.08,3.11,3.1c1.47,0.01,2.94,0,4.41,0c0.15,0,0.32-0.03,0.43,0.03
		C9.05,18,9.19,18.16,9.2,18.29c0.01,0.11-0.16,0.23-0.27,0.34c-0.03,0.03-0.11,0.02-0.17,0.02c-1.75,0-3.5,0.05-5.24-0.03
		c-1.75-0.08-3.24-1.65-3.31-3.43c-0.06-1.53-0.03-3.06-0.01-4.58c0.01-0.67,0.47-1.1,1.14-1.14C1.53,9.47,1.71,9.47,1.95,9.47z
		M14.51,2.36c-0.6,1.52-1.42,2.06-2.99,2.07c-1.99,0-3.98,0-5.98,0c-0.22,0-0.44,0.01-0.65,0.05C3.98,4.67,3.5,5.62,3.88,6.47
		c0.3,0.65,0.86,0.87,1.53,0.87c2.91,0,5.82,0,8.73,0c0.17,0,0.35-0.01,0.52-0.04c0.81-0.15,1.38-0.6,1.67-1.37
		c0.29-0.78,0.18-1.54-0.37-2.16C15.53,3.27,15.02,2.85,14.51,2.36z M2.75,9.44c4.86,0,9.67,0,14.48,0c0-0.46,0-0.88,0-1.31
		c-4.84,0-9.65,0-14.48,0C2.75,8.58,2.75,8.99,2.75,9.44z"/>
	<path d="M10.04,12c1.57,0,3.14,0,4.71,0c0.73,0,0.99,0.27,1,1c0,0.73,0.01,1.45,0,2.18c-0.01,0.68-0.29,0.96-0.95,0.96
		c-3.16,0-6.31,0-9.47,0c-0.85,0-1.09-0.24-1.09-1.09c0-0.7,0-1.4,0-2.09C4.25,12.29,4.53,12,5.2,12C6.81,11.99,8.43,12,10.04,12z
		M14.96,12.82c-3.33,0-6.62,0-9.9,0c0,0.86,0,1.68,0,2.52c3.31,0,6.6,0,9.9,0C14.96,14.48,14.96,13.67,14.96,12.82z"/>
	<path d="M10.32,18.81c-0.16-0.24-0.35-0.4-0.32-0.52c0.03-0.15,0.24-0.25,0.37-0.38c0.12,0.14,0.31,0.26,0.33,0.41
		C10.7,18.44,10.5,18.58,10.32,18.81z"/>
	<path d="M8.03,5.19c0.44,0,0.87,0,1.31,0c0.27,0,0.5,0.13,0.44,0.4C9.75,5.74,9.5,5.94,9.35,5.95C8.49,5.98,7.63,5.97,6.78,5.96
		c-0.26,0-0.5-0.12-0.44-0.4C6.37,5.41,6.61,5.22,6.77,5.2C7.19,5.15,7.61,5.19,8.03,5.19z"/>
	<path d="M11.01,6.12c-0.18-0.26-0.36-0.41-0.35-0.56c0-0.12,0.23-0.36,0.33-0.34c0.15,0.02,0.36,0.21,0.38,0.35
		C11.38,5.7,11.19,5.86,11.01,6.12z"/>
	<path d="M10,14.46c-0.94,0-1.89,0-2.83,0c-0.28,0-0.56-0.03-0.57-0.38c0-0.34,0.28-0.4,0.56-0.4c1.89,0,3.78,0,5.67,0
		c0.28,0,0.56,0.04,0.57,0.39c0,0.35-0.28,0.39-0.56,0.39C11.89,14.46,10.95,14.46,10,14.46L10,14.46z"/>
</svg>
