<svg id="cellphone" x="0px" y="0px" viewBox="0 0 40 45">
<style type="text/css">
	.st0{fill:none;stroke:#000000;stroke-miterlimit:10;}
</style>
<g id="outline">
	<line class="st0" x1="6.9" y1="8.1" x2="33.7" y2="8.1"/>
	<line class="st0" x1="6.9" y1="36.7" x2="33.7" y2="36.7"/>
	<g>
		<path d="M28.7,1c1.1,0,2.2,0.4,2.9,1.2c0.8,0.8,1.2,1.8,1.2,3v34.7c0,2.3-1.9,4.2-4.2,4.2H12c-2.3,0-4.2-1.9-4.2-4.2V5.2
			C7.8,2.9,9.7,1,12,1H28.7 M28.7,0H12C9.1,0,6.8,2.3,6.8,5.2v34.7c0,2.9,2.3,5.2,5.2,5.2h16.7c2.9,0,5.2-2.3,5.2-5.2V5.2
			C33.9,2.3,31.5,0,28.7,0L28.7,0z"/>
	</g>
</g>
<g id="shape">
	<path d="M22.1,4.7h-3.5c-0.5,0-0.9-0.2-0.9-0.5l0,0c0-0.3,0.4-0.5,0.9-0.5h3.5c0.5,0,0.9,0.2,0.9,0.5l0,0C23,4.5,22.6,4.7,22.1,4.7
		z"/>
	<path d="M20.4,41.2L20.4,41.2c-0.5,0-0.9-0.4-0.9-0.9l0,0c0-0.5,0.4-0.9,0.9-0.9l0,0c0.5,0,0.9,0.4,0.9,0.9l0,0
		C21.3,40.8,20.9,41.2,20.4,41.2z"/>
</g>
</svg>
