<svg id="eyelash" x="0px" y="0px" viewBox="0 0 20 20">
	<path d="M6.09,15.7c-1.5-1.29-1.68-3.31-0.59-4.86c-0.34,0.21-0.69,0.4-1.01,0.64c-1.03,0.77-1.81,1.75-2.41,2.88
		c-0.14,0.26-0.31,0.36-0.52,0.29s-0.3-0.25-0.24-0.55c0.33-1.76,0.99-3.36,2.29-4.64C4.68,8.39,6,7.91,7.5,7.86
		C7.82,7.85,8.02,8,8.02,8.25c0.01,0.25-0.18,0.4-0.51,0.4c-2.23,0.04-3.66,1.25-4.65,3.2c0.37-0.32,0.68-0.62,1.03-0.89
		C4.85,10.2,5.93,9.74,7.16,9.6C8.1,9.5,8.98,8.56,9.08,7.54c0.03-0.32-0.01-0.65-0.05-0.97C9,6.3,9.08,6.1,9.3,6.04
		C9.53,5.98,9.73,6.12,9.8,6.4c0.25,1.05,0.04,2-0.62,2.85C9.14,9.3,9.1,9.35,9.06,9.41c0.69-0.27,1.18-0.74,1.4-1.45
		c0.11-0.35,0.11-0.73,0.13-1.1C10.6,6.6,10.7,6.4,10.94,6.38c0.23-0.02,0.41,0.13,0.43,0.4c0.11,1.07-0.24,1.98-1,2.74
		c-0.05,0.05-0.12,0.1-0.16,0.17c0.39-0.03,0.74-0.16,1.05-0.39c0.74-0.54,1.1-1.28,1.04-2.2c-0.03-0.53,0.19-0.71,0.7-0.5
		c0.06-0.63,0.12-1.25,0.18-1.87c0.07-0.69,0.14-1.37,0.21-2.06c0.02-0.2,0.08-0.36,0.29-0.42c0.22-0.06,0.36,0.05,0.48,0.22
		c0.74,1.03,1.49,2.05,2.22,3.1c0.13,0.19,0.18,0.45,0.25,0.69c1.06,3.97,2.12,7.94,3.18,11.91c0.09,0.32-0.01,0.52-0.27,0.57
		c-0.29,0.05-0.44-0.09-0.52-0.41c-0.19-0.82-0.41-1.65-0.63-2.46c-0.59-2.21-1.19-4.43-1.78-6.64c-0.23-0.84-0.45-1.68-0.69-2.56
		c-0.57,0.48-1.21,0.65-1.96,0.54c0.06,0.24,0.1,0.44,0.16,0.64c0.61,2.27,1.22,4.53,1.82,6.8c0.28,1.03,0.56,2.07,0.82,3.11
		c0.04,0.14,0.01,0.35-0.07,0.46c-0.19,0.25-0.55,0.12-0.64-0.22c-0.2-0.71-0.38-1.42-0.58-2.14c-0.33-1.21-0.65-2.42-0.99-3.67
		c-0.06,0.08-0.1,0.13-0.13,0.19c-1.48,2.56-3.71,3.93-6.65,4.13c-1.22,0.08-2.42-0.04-3.62-0.3c-0.03-0.01-0.06-0.01-0.09-0.02
		c-0.23-0.07-0.34-0.26-0.29-0.47c0.05-0.2,0.23-0.31,0.46-0.28c0.6,0.09,1.21,0.18,1.81,0.28C6,15.69,6.04,15.69,6.09,15.7z
		M5.6,13.02c0.01,1.47,1.16,2.6,2.62,2.6c1.43,0,2.59-1.18,2.59-2.62c-0.01-1.45-1.16-2.61-2.6-2.6C6.75,10.41,5.59,11.57,5.6,13.02
		z M11.26,14.56c1.24-0.78,2.09-1.88,2.74-3.16c0.19-0.37,0.12-0.69,0.01-0.99c-1.14,0.08-2.27,0.15-3.38,0.22
		C11.66,11.79,11.88,13.1,11.26,14.56z M14.11,3.73c-0.03,0.05-0.05,0.07-0.05,0.08c-0.08,0.79-0.17,1.57-0.24,2.36
		c-0.01,0.06,0.08,0.17,0.14,0.19c0.57,0.21,1.25-0.02,1.64-0.54C15.12,5.14,14.63,4.44,14.11,3.73z M11.97,9.74
		c0.01,0.02,0.03,0.05,0.04,0.07c0.58-0.07,1.17-0.14,1.79-0.21c-0.23-0.84-0.44-1.63-0.65-2.41C13.1,8.21,12.72,9.05,11.97,9.74z"/>
	<path d="M17.88,5.45c-0.75-1.05-1.41-2.18-2.27-3.14c-1.24-1.38-2.85-1.75-4.6-1.13c-2.02,0.73-4,1.52-5.99,2.28
		C3.86,3.9,2.69,4.35,1.53,4.8c-0.47,0.18-0.71,0.59-0.6,1.03c0.1,0.44,0.49,0.66,0.93,0.52c0.9-0.3,1.8-0.61,2.7-0.92
		c1.97-0.67,3.93-1.34,5.9-2.01c0.19-0.07,0.4-0.11,0.52,0.08c0.07,0.11,0.08,0.3,0.05,0.43C11,4.02,10.85,4.1,10.74,4.14
		C8.27,4.99,5.8,5.83,3.33,6.67C2.96,6.8,2.59,6.92,2.23,7.05c-0.84,0.3-1.66-0.02-1.96-0.76c-0.34-0.84,0.02-1.8,0.83-2.14
		c0.78-0.32,1.57-0.61,2.35-0.91c2.41-0.92,4.81-1.85,7.22-2.76c2.21-0.84,4.7-0.03,6.04,1.93c0.97,1.42,1.94,2.85,2.91,4.27
		c0.06,0.09,0.13,0.18,0.18,0.28c0.1,0.17,0.08,0.34-0.06,0.48s-0.32,0.15-0.48,0.04c-0.21-0.13-0.4-0.28-0.61-0.42
		c-0.41-0.29-0.82-0.57-1.23-0.86c-0.26-0.18-0.3-0.46-0.1-0.65c0.15-0.15,0.33-0.13,0.51-0.04C17.84,5.48,17.86,5.47,17.88,5.45z"/>
	<path d="M16.85,19.85c-0.21,0-0.39-0.18-0.4-0.4c-0.01-0.21,0.16-0.38,0.37-0.39c0.23-0.01,0.4,0.15,0.41,0.37
		C17.24,19.66,17.06,19.85,16.85,19.85z"/>
	<path d="M12.21,3.61c-0.22,0-0.39-0.17-0.38-0.4C11.84,3,12,2.85,12.22,2.85s0.38,0.16,0.38,0.37C12.6,3.44,12.43,3.61,12.21,3.61z"
		/>
	<path d="M9.77,13.01c-0.01,0.87-0.71,1.57-1.58,1.57c-0.85-0.01-1.56-0.72-1.55-1.57c0-0.85,0.71-1.57,1.56-1.57
		C9.05,11.44,9.78,12.16,9.77,13.01z M8.99,13.03c0.02-0.42-0.32-0.78-0.74-0.8c-0.44-0.02-0.81,0.31-0.82,0.74
		c-0.02,0.45,0.33,0.82,0.77,0.83C8.62,13.81,8.97,13.47,8.99,13.03z"/>
</svg>
