<svg id="hair_removal" x="0px" y="0px" viewBox="0 0 20 20">
	<path d="M0.01,20c0-2.3,0-4.55,0-6.84c0.06,0.04,0.11,0.07,0.15,0.1c0.74,0.65,1.48,1.29,2.22,1.94c0.79,0.69,1.72,0.75,2.6,0.16
		c0.79-0.53,1.63-0.92,2.58-1.1c1.19-0.22,2.35-0.11,3.45,0.36c1.07,0.45,2.1,0.98,3.15,1.47c0.32,0.14,0.64,0.3,0.95,0.44
		c0.01-0.01,0.02-0.03,0.03-0.04c-0.55-1.05-1.12-2.1-1.67-3.15c-0.09-0.17-0.18-0.34-0.28-0.51c-0.31-0.57-0.78-0.91-1.43-0.91
		c-0.94-0.01-1.41-1-0.91-1.72c0.33-0.48,0.44-1.05,0.44-1.63c0-0.46,0-0.91,0-1.38c0-0.38,0.21-0.66,0.53-0.75
		c0.33-0.09,0.65,0.04,0.83,0.38c0.26,0.48,0.49,0.98,0.73,1.47c0.04,0.09,0.09,0.18,0.17,0.35c0.22-0.45,0.42-0.84,0.59-1.24
		c0.22-0.55,0.39-1.12,0.59-1.68c0.15-0.43,0.45-0.64,0.83-0.56c0.36,0.06,0.57,0.36,0.57,0.81c0,0.63,0.01,1.25,0,1.88
		c-0.03,1.51,0.34,2.91,0.97,4.26c0.6,1.26,1.14,2.56,1.75,3.82c0.2,0.41,0.49,0.79,0.76,1.17c0.69,0.95,0.44,2.17-0.6,2.69
		c-0.27,0.13-0.61,0.2-0.9,0.2 M10.33,18.05h0.64c0,0.43,0,0.84,0,1.27c0.11,0.01,0.18,0.01,0.26,0.01c1.17,0,2.33-0.01,3.5-0.01
		c1.14,0,2.29-0.01,3.43-0.01c0.29,0,0.56-0.03,0.78-0.26c0.52-0.53,0.56-1.07,0.09-1.68c-1.19-1.58-2.38-3.16-3.56-4.75
		c-0.48-0.66-1.07-1.17-1.82-1.5c-0.68-0.31-0.92-1.09-0.6-1.76c0.04-0.07,0.04-0.21,0.01-0.28c-0.29-0.61-0.6-1.19-0.89-1.79
		c-0.04-0.07-0.08-0.14-0.12-0.22c-0.02,0-0.04,0.01-0.06,0.01c-0.01,0.08-0.03,0.16-0.03,0.25c0,0.37-0.01,0.74,0,1.11
		c0.02,0.75-0.14,1.45-0.54,2.09c-0.24,0.39-0.06,0.7,0.39,0.73c0.91,0.06,1.57,0.5,1.99,1.31c0.67,1.26,1.36,2.51,1.98,3.78
		c0.21,0.41,0.47,0.61,0.91,0.63c0.34,0.02,0.68,0.07,1.02,0.1c0,0.22,0,0.41,0,0.61c-0.66,0.05-1.68-0.08-2.45-0.41
		c-1.18-0.5-2.34-1.07-3.51-1.6c-0.26-0.11-0.5-0.24-0.8-0.37c0,0.72,0,1.4,0,2.06c-0.23,0-0.42,0-0.65,0c0-0.78,0-1.54,0-2.31
		c-1.69-0.49-3.25-0.27-4.71,0.67c-0.06,0.04-0.12,0.15-0.12,0.24c-0.01,1.06,0,2.1-0.01,3.16c0,0.15,0.05,0.2,0.2,0.2
		c1.48,0,2.96,0,4.45,0c0.15,0,0.22-0.05,0.21-0.21L10.33,18.05z M0.68,14.6c-0.01,0.08-0.02,0.1-0.02,0.13c0,1.47,0,2.95-0.01,4.41
		c0,0.16,0.08,0.17,0.21,0.17c1.25,0,2.51,0,3.76,0c0.06,0,0.12-0.01,0.2-0.02c0-1.04,0-2.05,0-3.08c-0.04,0.01-0.07,0.01-0.09,0.01
		c-1.07,0.38-2,0.16-2.83-0.6C1.5,15.31,1.11,14.97,0.68,14.6z M17.05,13.69c-0.49-1.25-1.14-2.45-1.4-3.79s-0.16-2.7-0.23-4.06
		c-0.08,0.11-0.13,0.24-0.16,0.36c-0.37,1.2-0.81,2.37-1.57,3.4c-0.27,0.37-0.15,0.78,0.27,0.95c0.9,0.39,1.57,1.03,2.13,1.83
		C16.39,12.83,16.72,13.25,17.05,13.69z"/>
	<path d="M6.77,3.86c0.24,0,0.42,0,0.66,0c-0.08,1.4,0.29,2.84-0.6,4.16c0.62,0,1.19,0,1.82,0c-0.87-1.29-0.5-2.74-0.6-4.17
		c0.13,0,0.24,0,0.34,0c0.09,0,0.18,0,0.32,0c0,0.11,0,0.2,0,0.28c0,0.62,0,1.24,0,1.86s0.18,1.18,0.51,1.7
		c0.16,0.27,0.36,0.37,0.67,0.36c0.5-0.02,0.42-0.07,0.44,0.42c0.02,0.83-0.07,1.63-0.44,2.39c-1.1,2.3-4.18,3.07-6.21,1.55
		c-1.16-0.86-1.74-2.02-1.75-3.46c0-0.23,0.01-0.45,0-0.68c-0.02-0.2,0.05-0.24,0.24-0.24c1.17,0,2.34-0.01,3.5,0.01
		c0.26,0,0.4-0.09,0.53-0.29C6.57,7.23,6.77,6.65,6.77,6c0-0.62,0-1.24,0-1.86C6.77,4.06,6.77,3.96,6.77,3.86z M9.1,10.93
		c-0.3-0.04-0.54-0.06-0.78-0.11c-0.9-0.22-1.81-0.44-2.71-0.66c-0.53-0.12-1.07-0.23-1.62-0.12c-0.39,0.07-0.76,0.18-1.07,0.44
		c0.52,1.24,1.86,2.09,3.21,2.07C7.39,12.54,8.35,11.98,9.1,10.93z M2.65,9.76c0.06,0.02,0.07,0.02,0.07,0.02
		c0.05-0.02,0.09-0.04,0.13-0.06c0.57-0.3,1.2-0.46,1.84-0.37c0.68,0.09,1.33,0.27,2,0.4c0.84,0.17,1.68,0.34,2.53,0.5
		c0.07,0.01,0.21-0.02,0.22-0.07c0.18-0.47,0.26-0.97,0.21-1.48C9.6,8.71,9.58,8.7,9.56,8.7c-2.27,0-4.54,0-6.81,0
		c-0.14,0-0.18,0.06-0.17,0.2C2.61,9.18,2.63,9.48,2.65,9.76z"/>
	<path d="M8.72,0C8.64,0.27,8.79,0.37,8.99,0.47C9.44,0.7,9.67,1.09,9.67,1.58c0.01,0.51-0.23,0.9-0.66,1.13
		c-0.22,0.11-0.38,0.2-0.3,0.48c-0.23,0-0.42,0-0.64,0C8.07,3.1,8.05,3.01,8.03,2.91c-0.2,0-0.39,0-0.59,0C7.43,3,7.42,3.08,7.4,3.19
		c-0.2,0-0.39,0-0.61,0C6.79,3.14,6.77,3.08,6.78,3.02C6.8,2.87,6.72,2.82,6.6,2.78C6.28,2.66,6.05,2.44,5.92,2.13
		C5.86,1.96,5.76,1.92,5.6,1.92c-1.77,0-3.54,0-5.31,0c-0.08,0-0.17,0-0.28,0c0-0.22,0-0.41,0-0.65c0.1,0,0.21,0,0.31,0
		c1.77,0,3.52,0,5.29,0c0.15,0,0.23-0.05,0.31-0.18c0.14-0.23,0.32-0.45,0.53-0.6c0.2-0.13,0.39-0.21,0.31-0.5c0.24,0,0.44,0,0.66,0
		c0.01,0.1,0.02,0.18,0.03,0.29c0.2,0,0.38,0,0.59,0C8.05,0.19,8.06,0.1,8.07,0C8.28,0,8.48,0,8.72,0z M7.44,0.97
		c0,0.43,0,0.84,0,1.25c0.22,0,0.4,0,0.6,0c0-0.43,0-0.83,0-1.25C7.83,0.97,7.65,0.97,7.44,0.97z M8.73,1.11c0,0.34,0,0.67,0,1
		C9.12,1.83,9.12,1.33,8.73,1.11z M6.75,2.12c0-0.36,0-0.68,0-1.01C6.37,1.36,6.36,1.79,6.75,2.12z"/>
</svg>
