<svg class="instagram" x="0px" y="0px" viewBox="0 0 60 60">
	<path d="M30.01,14.62c-8.52,0-15.38,6.87-15.38,15.38s6.87,15.38,15.38,15.38S45.39,38.52,45.39,30S38.52,14.62,30.01,14.62z
		M30.01,40c-5.5,0-10-4.49-10-10s4.49-10,10-10s10,4.49,10,10S35.51,40,30.01,40L30.01,40z M49.61,13.99c0,1.99-1.61,3.59-3.59,3.59
		c-1.99,0-3.59-1.61-3.59-3.59s1.61-3.59,3.59-3.59C48,10.4,49.61,12.01,49.61,13.99z M59.8,17.63c-0.23-4.81-1.33-9.06-4.85-12.57
		c-3.51-3.51-7.77-4.61-12.57-4.85c-4.95-0.28-19.8-0.28-24.76,0C12.83,0.44,8.57,1.54,5.05,5.04S0.45,12.81,0.2,17.62
		c-0.28,4.95-0.28,19.8,0,24.76c0.23,4.81,1.33,9.06,4.85,12.57s7.77,4.61,12.57,4.85c4.95,0.28,19.8,0.28,24.76,0
		c4.81-0.23,9.06-1.33,12.57-4.85c3.51-3.51,4.61-7.77,4.85-12.57C60.08,37.42,60.08,22.58,59.8,17.63L59.8,17.63z M53.4,47.69
		c-1.04,2.62-3.07,4.65-5.7,5.7c-3.95,1.57-13.32,1.2-17.69,1.2s-13.75,0.35-17.69-1.2c-2.62-1.04-4.65-3.07-5.7-5.7
		C5.05,43.74,5.41,34.36,5.41,30s-0.35-13.75,1.2-17.69c1.04-2.62,3.07-4.65,5.7-5.7c3.95-1.57,13.32-1.2,17.69-1.2
		s13.75-0.35,17.69,1.2c2.62,1.04,4.65,3.07,5.7,5.7c1.57,3.95,1.2,13.32,1.2,17.69S54.96,43.75,53.4,47.69z"/>
</svg>
