<svg id="nail" x="0px" y="0px" viewBox="0 0 20 20">
	<path id="finger-3" d="M18.87,9.55c0,0.11,0,0.21,0,0.32c-0.01,0.98,0.02,1.96-0.03,2.94c-0.04,0.81-0.7,1.4-1.51,1.44
		c-0.52,0.02-1.05,0.09-1.53-0.2c-0.5-0.3-0.81-0.72-0.82-1.31c-0.02-0.98-0.01-1.96-0.01-2.94c0-0.09,0-0.19,0-0.28
		C14.94,9.5,14.92,9.5,14.9,9.49c-0.08,0.19-0.18,0.38-0.23,0.58c-0.05,0.26-0.08,0.54-0.08,0.8c-0.01,2.25,0,4.5,0,6.74
		c0,0.08,0,0.15,0,0.23c-0.01,0.21-0.11,0.35-0.32,0.35c-0.2,0-0.3-0.14-0.3-0.34c0-0.06,0-0.12,0-0.18c0-2.32,0-4.63,0-6.95
		c0-0.83,0.28-1.55,0.86-2.15c0.08-0.09,0.13-0.23,0.14-0.35c0.07-0.88,0.69-1.6,1.56-1.77c0.86-0.17,1.76,0.26,2.13,1.06
		c0.11,0.25,0.14,0.53,0.21,0.8c0.03,0.1,0.06,0.21,0.13,0.28c0.58,0.59,0.85,1.31,0.85,2.13c0,1.66,0,3.33,0,4.99
		c0,0.69,0,1.39,0,2.08c0,0.19-0.04,0.34-0.24,0.4c-0.2,0.06-0.37-0.1-0.37-0.36c0-0.55,0-1.1,0-1.65c0-1.8,0-3.6,0-5.4
		C19.23,10.34,19.16,9.92,18.87,9.55z M15.58,8.61c0,0.52,0,0.98,0,1.43c0,0.05,0.04,0.11,0.07,0.15c0.68,0.68,1.49,0.93,2.43,0.76
		c0.06-0.01,0.14-0.08,0.14-0.13c0.01-0.27,0.01-0.55,0.01-0.85C17.09,10.05,16.22,9.62,15.58,8.61z M15.58,10.97
		c0,0.35,0,0.65,0,0.95c0,0.05,0.05,0.11,0.09,0.13c0.73,0.5,1.53,0.69,2.4,0.55c0.06-0.01,0.15-0.08,0.15-0.12
		c0.01-0.3,0.01-0.6,0.01-0.92C17.26,11.74,16.4,11.53,15.58,10.97z M16.31,7.18C15.9,7.4,15.85,7.51,15.98,7.9
		c0.03,0.1,0.07,0.19,0.11,0.28c0.35,0.82,1.33,1.33,2.15,1.11c0-0.12-0.01-0.26,0-0.39c0.01-0.17-0.05-0.21-0.22-0.26
		c-0.31-0.08-0.63-0.19-0.91-0.34C16.7,8.06,16.47,7.65,16.31,7.18z M17.97,13.27c-0.84,0.06-1.62-0.12-2.37-0.52
		c0.06,0.43,0.31,0.77,0.67,0.83C16.87,13.66,17.48,13.78,17.97,13.27z M18.16,8.01c-0.06-0.52-0.69-1.02-1.19-0.94
		C17.08,7.62,17.62,8.05,18.16,8.01z"/>
	<g id="finger-2">
		<path d="M11.97,4.97c0,0.1,0,0.2,0,0.3c0,0.88,0,1.76-0.01,2.64c-0.01,1.02-0.6,1.66-1.59,1.74C10.02,9.67,9.65,9.67,9.31,9.6
			c-0.8-0.17-1.26-0.82-1.27-1.7c0-0.9,0-1.79,0-2.69c0-0.08,0-0.16-0.02-0.24C7.74,5.32,7.69,5.74,7.69,6.15
			c-0.01,1.64,0,3.28-0.01,4.92c0,2.23,0,4.46,0,6.69c0,0.04,0,0.08,0,0.13c-0.01,0.18-0.12,0.29-0.29,0.3
			c-0.19,0.01-0.3-0.1-0.32-0.29c-0.01-0.13-0.01-0.25-0.01-0.38c0-3.73,0-7.45-0.01-11.18c0-0.93,0.24-1.73,0.9-2.39
			c0.08-0.08,0.1-0.23,0.11-0.35c0.1-0.99,0.84-1.72,1.82-1.79c0.96-0.06,1.85,0.59,2.02,1.55c0.06,0.36,0.19,0.63,0.42,0.9
			c0.42,0.5,0.61,1.1,0.62,1.76c0.01,1.31,0,2.62,0,3.93c0,0.27-0.12,0.41-0.32,0.39c-0.24-0.02-0.3-0.18-0.3-0.39
			c0-1.23,0-2.47-0.01-3.7C12.32,5.8,12.28,5.36,11.97,4.97z M8.68,7.51c0.03,0.02,0.07,0.05,0.1,0.07C8.85,7.48,8.91,7.36,9,7.27
			c0.67-0.68,1.32-1.38,2.03-2.01c0.46-0.41,0.23-0.88,0.27-1.33C10.42,4.76,9.58,5.6,8.75,6.44C8.71,6.48,8.68,6.55,8.68,6.6
			C8.67,6.9,8.68,7.2,8.68,7.51z M11.33,5.92c-0.04-0.01-0.05-0.01-0.05-0.01c-0.81,0.8-1.62,1.6-2.42,2.41
			C8.81,8.36,8.81,8.5,8.84,8.55c0.07,0.11,0.17,0.21,0.27,0.3c0.11,0.1,0.21,0.08,0.32-0.03c0.58-0.6,1.18-1.19,1.76-1.78
			c0.05-0.05,0.12-0.12,0.12-0.18C11.33,6.54,11.33,6.23,11.33,5.92z M10.61,2.58C9.99,3.21,9.37,3.84,8.75,4.47
			C8.72,4.5,8.68,4.55,8.68,4.6c-0.01,0.32,0,0.63,0,1.01c0.13-0.13,0.22-0.2,0.3-0.28c0.62-0.62,1.24-1.24,1.86-1.86
			c0.38-0.38,0.37-0.5-0.09-0.8C10.72,2.64,10.68,2.62,10.61,2.58z M10.18,9c0.69,0.17,1.31-0.61,1.11-1.12
			C10.93,8.25,10.56,8.62,10.18,9z M9.81,2.47C9.24,2.5,8.72,3.03,8.71,3.56C9.06,3.21,9.43,2.84,9.81,2.47z"/>
		<path d="M12.95,14.61c0,1.03,0,2.06,0,3.09c0,0.09,0.02,0.21-0.02,0.27c-0.07,0.09-0.2,0.21-0.3,0.21c-0.1,0-0.21-0.13-0.28-0.23
			c-0.04-0.05-0.02-0.15-0.02-0.22c0-2.07,0-4.14,0.01-6.21c0-0.02,0-0.03,0-0.05c0-0.31,0.1-0.46,0.31-0.46
			c0.21,0,0.31,0.14,0.31,0.46C12.94,12.52,12.94,13.57,12.95,14.61C12.94,14.61,12.95,14.61,12.95,14.61z"/>
	</g>
	<g id="finger-1">
		<path d="M5.05,8.56c0,0.85,0,1.7,0,2.55c0,0.22-0.02,0.44-0.07,0.65c-0.16,0.64-0.74,1.13-1.41,1.16
			c-0.39,0.02-0.79,0.04-1.16-0.03c-0.79-0.15-1.27-0.83-1.27-1.69c-0.01-0.87,0-1.74-0.06-2.63C1.01,8.71,0.93,8.85,0.9,9
			C0.84,9.28,0.78,9.56,0.78,9.85c-0.01,1.87-0.01,3.74-0.01,5.6c0,0.08,0.03,0.19-0.01,0.25c-0.08,0.1-0.19,0.25-0.29,0.25
			c-0.1,0-0.21-0.14-0.29-0.24c-0.04-0.05-0.01-0.15-0.01-0.22c0-1.89,0-3.79,0-5.68c0-0.86,0.27-1.6,0.87-2.23
			c0.08-0.08,0.1-0.24,0.1-0.37c0-0.68,0.21-1.26,0.76-1.69c0.6-0.47,1.28-0.56,1.98-0.26c0.69,0.3,1.12,0.85,1.16,1.62
			c0.02,0.37,0.09,0.67,0.36,0.97c0.46,0.5,0.66,1.14,0.66,1.82c0,2.7,0,5.41-0.01,8.11c0,0.17-0.02,0.34-0.2,0.39
			c-0.1,0.02-0.25,0-0.31-0.07c-0.07-0.07-0.09-0.21-0.1-0.32c-0.01-0.53-0.01-1.06-0.01-1.6c0-2.1,0-4.21-0.01-6.31
			C5.41,9.4,5.37,8.95,5.05,8.56z M4.43,9.17C4.42,9.17,4.42,9.17,4.43,9.17c0-0.72,0.01-1.44-0.01-2.16
			C4.4,6.29,3.83,5.73,3.12,5.72C2.41,5.71,1.8,6.24,1.79,6.96c-0.03,1.47-0.02,2.94,0,4.41c0.01,0.53,0.42,0.91,0.95,0.94
			c0.19,0.01,0.39,0.01,0.58,0c0.72-0.01,1.11-0.39,1.11-1.12C4.43,10.52,4.43,9.85,4.43,9.17z"/>
		<path d="M3.78,11.63c-0.19-0.01-0.32-0.1-0.32-0.31c-0.01-0.21,0.13-0.31,0.32-0.32c0.19,0,0.33,0.1,0.33,0.3
			C4.11,11.51,3.98,11.61,3.78,11.63z"/>
		<path d="M2.79,6.4c0.02-0.21,0.13-0.32,0.33-0.32c0.2,0,0.33,0.1,0.33,0.3c0,0.2-0.12,0.31-0.32,0.32C2.93,6.7,2.82,6.59,2.79,6.4z
			"/>
		<path d="M2.48,11.63c-0.19-0.01-0.33-0.1-0.34-0.3c-0.01-0.2,0.11-0.31,0.31-0.32c0.2-0.01,0.32,0.1,0.34,0.3
			C2.81,11.47,2.65,11.63,2.48,11.63z"/>
		<path d="M2.45,10.31c-0.18-0.02-0.31-0.11-0.31-0.32c0-0.21,0.14-0.3,0.33-0.3c0.2,0,0.31,0.12,0.32,0.31
			C2.8,10.17,2.63,10.32,2.45,10.31z"/>
		<path d="M3.77,10.32C3.59,10.29,3.45,10.2,3.45,10c0-0.21,0.14-0.31,0.33-0.3C3.98,9.7,4.11,9.8,4.11,10
			C4.1,10.2,3.97,10.3,3.77,10.32z"/>
		<path d="M2.46,8.38c0.19,0.02,0.33,0.11,0.33,0.31c0,0.2-0.13,0.31-0.33,0.31c-0.19,0-0.33-0.1-0.33-0.31
			C2.14,8.48,2.27,8.39,2.46,8.38z"/>
		<path d="M4.11,7.38c-0.02,0.21-0.15,0.29-0.34,0.3C3.59,7.69,3.45,7.54,3.45,7.36c0.01-0.21,0.15-0.29,0.33-0.3
			C3.97,7.05,4.12,7.21,4.11,7.38z"/>
		<path d="M2.46,7.68c-0.2-0.02-0.32-0.11-0.33-0.31c0-0.21,0.14-0.29,0.33-0.3C2.64,7.05,2.81,7.21,2.8,7.37
			C2.78,7.58,2.65,7.67,2.46,7.68z"/>
		<path d="M4.11,8.69C4.09,8.9,3.96,8.99,3.77,9C3.59,9.01,3.44,8.85,3.45,8.68c0.01-0.21,0.15-0.3,0.33-0.3
			C3.98,8.38,4.1,8.49,4.11,8.69z"/>
		<path d="M0.77,17.4c0,0.17,0.01,0.34,0,0.51c-0.01,0.18-0.12,0.28-0.29,0.29c-0.18,0-0.3-0.1-0.3-0.28c-0.02-0.34-0.02-0.67,0-1.01
			c0.01-0.18,0.12-0.3,0.32-0.28c0.18,0.01,0.27,0.13,0.28,0.3C0.78,17.08,0.77,17.24,0.77,17.4C0.77,17.4,0.77,17.4,0.77,17.4z"/>
	</g>
</svg>
