<svg class="logo-m" x="0px" y="0px" viewBox="0 0 100 82.34">
<style type="text/css">
	.st0{fill:#1F1F1C;}
</style>
<path class="st0" d="M54.88,39.29c1.64-2.05,2.48-4.83,2.02-7.45h-1.27c-1.11,0-2.23,0-3.34,0l2.48,7.12L54.88,39.29z"/>
<path class="st0" d="M52.29,31.84l-0.65-1.87l-0.1-0.29l0-0.01L41.55,1H18.33v2.37h8.84c0.16,0,0.3,1.14,0.42,3.26
	c0.12,2.12,0.2,4.78,0.24,8.13c0.02,1.38,0.02,2.84,0.01,4.37c-0.96-0.37-1.32-0.75-1.54-1.34c-2.53-3.72-6.15-4.98-10.38-4.99
	c-4.51-0.02-9.02,0-13.53,0H1.13c-0.69,3.87,1.49,8.12,4.88,9.79c3.96,1.96,7.64,0.97,11.28-0.95c1.13-0.59,2.32-1.16,3.54-1.48
	c2.78-0.73,6.26-0.63,7.01,1.78c0,1.35,0,2.76,0.02,4.23c0.04,4.19-0.03,8.4-0.03,12.7V51.6c0,1.42,0.01,2.79,0.02,4.11
	c-0.01,0-0.01-0.01-0.02-0.01v2.83c0.01,0.04,0.03,0.08,0.04,0.12c0,0,0.02,1.39-0.01,3.32c-0.04,3.24-0.05,5.99-0.13,8.27
	c-0.08,2.28-0.14,3.78-0.22,4.5c-0.24,2.16-1.13,3.47-2.68,3.79c-1.56,0.32-3.33,0.43-5.32,0.43h-1.17v2.37H40.7v-2.37h-1.18
	c-0.96,0-1.94,0-2.94,0c-1,0-1.96-0.13-2.88-0.37c-0.92-0.24-1.7-0.63-2.34-1.15c-0.64-0.52-0.93-1.26-1.01-2.22
	c-0.16-0.64-0.17-1.44-0.17-2.4c0-0.96,0-2.6,0-4.91V40.97c0.76-2.39,4.23-2.49,7-1.76c1.23,0.32,2.41,0.88,3.54,1.48
	c0,0,0,0,0.01,0l-0.76-2.16c0,0,0,0,0,0l-2.14-6.14c-2.41,0.68-4.49,2.05-6.12,4.45c-0.23,0.59-0.58,0.97-1.53,1.34v-0.28
	l-0.01-1.44c0,0,0.01,0,0.01,0V13.37l0.89-0.24l6.22,17.7c0,0,0,0,0,0l0.54,1.56c1.33-0.38,2.76-0.54,4.26-0.54
	C45.49,31.83,48.89,31.84,52.29,31.84z"/>
<path class="st0" d="M92.22,60.45V21.89v-2.25V3.38H99V1H79.07l-18.7,54.07l-5.5-15.79c-0.79,0.99-1.76,1.8-2.86,2.35
	c-3.96,1.96-7.64,0.97-11.28-0.95L54.5,79.66c3.84-10.87,7.61-21.72,11.33-32.55c3.72-10.83,7.41-21.68,11.09-32.55l0.96,0.31
	l-0.12,64.09h-6.89v2.37H99v-2.37h-6.78v-3.24V60.45z"/>
</svg>
