<svg class="logo-meloha" x="0px" y="0px" viewBox="0 0 100 51.38">
<style type="text/css">
	.st0{fill:#1F1F1C;}
</style>
<g>
	<g>
		<path class="st0" d="M52.83,27.98c-0.2-0.3-0.3-0.61-0.3-0.94c0-0.18,0.03-0.36,0.09-0.55c0.17-0.53,0.39-0.99,0.67-1.4l0.15-0.19 c0.86-1.09,1.7-1.65,2.5-1.67c0.43,0.03,0.76,0.2,1.01,0.51c0.11,0.19,0.16,0.38,0.16,0.58c0,0.17-0.04,0.34-0.12,0.52 c-0.21,0.42-0.46,0.77-0.76,1.07c-0.6,0.6-1.33,0.92-2.22,0.98c-0.33-0.06-0.52-0.17-0.57-0.33c-0.05-0.16-0.07-0.28-0.07-0.36 c0-0.16,0.04-0.31,0.13-0.45c0.12-0.18,0.32-0.27,0.6-0.27h0.12c0.25-0.01,0.45-0.04,0.62-0.09c0.16-0.05,0.3-0.11,0.39-0.18 c0.1-0.07,0.17-0.14,0.22-0.22c0.05-0.07,0.08-0.14,0.1-0.21c0.01-0.06,0.02-0.12,0.02-0.16l-0.01-0.06 c-0.16,0.04-0.35,0.14-0.57,0.31c-0.22,0.17-0.42,0.37-0.6,0.61l-0.24,0.28c-0.28,0.46-0.42,0.9-0.42,1.32 c0,0.34,0.2,0.55,0.6,0.62c0.15,0.03,0.28,0.05,0.39,0.06c0.05,0,0.08,0.01,0.1,0.02l0.3-0.02c0.79,0,1.63-0.18,2.5-0.55 c1.06-0.44,2.14-1.03,3.23-1.79c0.08-0.04,0.15-0.06,0.22-0.06c0.17,0,0.25,0.09,0.25,0.28c0,0.11-0.06,0.2-0.19,0.28 c-0.39,0.26-0.83,0.54-1.32,0.83c-1.28,0.75-2.63,1.32-4.06,1.7c-0.35,0.08-0.69,0.12-1.04,0.12 C53.83,28.62,53.2,28.41,52.83,27.98z"/>
		<path class="st0" d="M61.52,32.13c-0.61-0.5-0.94-1.17-1.01-2.01c-0.03-0.4-0.04-0.79-0.04-1.19c0-0.67,0.13-1.79,0.39-3.35 c0.13-0.79,0.31-1.68,0.55-2.65c0.68-2.76,1.46-5.2,2.34-7.34c0.43-1.05,0.89-2.09,1.38-3.12c0.49-1.03,1.1-1.99,1.82-2.89 c0.28-0.35,0.62-0.61,1.04-0.77c0.17-0.07,0.33-0.1,0.48-0.1c0.43,0,0.75,0.22,0.98,0.67c0.08,0.17,0.11,0.34,0.1,0.52l-0.06,0.43 c-0.58,3.39-1.67,6.68-3.28,9.85c-1.61,3.18-3.21,5.45-4.8,6.82c-0.2,0.17-0.35,0.25-0.46,0.25c-0.08,0-0.12-0.04-0.12-0.12 c0-0.1,0.05-0.26,0.15-0.48c0.07-0.16,0.1-0.29,0.1-0.4c0-0.03-0.01-0.05-0.02-0.06c1.05-0.95,2.11-2.3,3.17-4.05 c1.28-2.11,2.42-4.72,3.41-7.83c0.31-0.94,0.56-2.02,0.76-3.23c0.03-0.18,0.04-0.37,0.04-0.58c0-0.25-0.06-0.37-0.18-0.37 c-0.09,0-0.26,0.12-0.52,0.37c-0.79,0.77-1.46,1.64-2,2.6c-0.54,0.96-1.05,1.97-1.53,3.04c-1.45,3.25-2.39,6.42-2.81,9.53 c-0.11,0.79-0.16,1.67-0.16,2.63c0,0.97,0.14,1.77,0.42,2.38c0.22,0.5,0.5,0.74,0.85,0.74c0.08,0,0.15-0.01,0.22-0.03 c0.71-0.18,1.47-0.63,2.28-1.34c1.03-0.91,2.24-2.26,3.63-4.05c0.06-0.08,0.13-0.12,0.22-0.12c0.17,0,0.25,0.08,0.25,0.24 c0,0.06-0.58,0.85-1.73,2.38c-0.87,1.15-1.83,2.17-2.86,3.07c-0.69,0.59-1.35,0.88-1.98,0.88C62.13,32.46,61.78,32.35,61.52,32.13 z"/>
		<path class="st0" d="M68.88,29.56c-0.4-0.14-0.63-0.35-0.69-0.63c-0.06-0.28-0.1-0.52-0.1-0.71c0-0.6,0.26-1.43,0.79-2.5 l0.34-0.74c0.17-0.24,0.36-0.36,0.58-0.36c0.29,0,0.48,0.08,0.58,0.25c0.1,0.16,0.15,0.3,0.15,0.41c0,0.14-0.04,0.29-0.13,0.45 c-0.47,0.57-0.8,1.2-1,1.91c-0.02,0.07-0.04,0.17-0.06,0.31l-0.01,0.19c0.01,0.04,0.02,0.06,0.03,0.06c0.02,0,0.04-0.01,0.06-0.03 c0.53-0.45,0.82-1.01,0.88-1.7c0-0.07-0.01-0.13-0.02-0.19c-0.01-0.05-0.01-0.1-0.01-0.14c-0.08-0.28-0.26-0.45-0.54-0.51 c-0.04-0.02-0.08-0.03-0.12-0.03c-0.01,0-0.04,0.02-0.07,0.06l0.09,0.01c0.17,0,0.27-0.2,0.31-0.61c0.02-0.13,0.05-0.26,0.09-0.39 h0.06c0.54,0.2,1.25,0.35,2.16,0.45l0.55,0.04c0.44,0.02,0.87,0.03,1.3,0.03c1.08,0,2.16-0.07,3.23-0.21 c0.26,0,0.39,0.11,0.39,0.33c0,0.19-0.11,0.3-0.33,0.33c-2.21,0.23-4.22,0.34-6.01,0.34c-0.72,0-1.35-0.04-1.89-0.13 c-0.27-0.05-0.43-0.13-0.49-0.24l-0.01-0.22c0-0.35,0.08-0.61,0.25-0.8c0.16-0.18,0.34-0.28,0.54-0.28l0.16,0.01 c0.7,0.16,1.2,0.58,1.47,1.25c0.07,0.21,0.1,0.45,0.1,0.73c0,0.13-0.01,0.25-0.01,0.37c-0.16,1.04-0.64,1.91-1.43,2.59 c-0.31,0.23-0.57,0.34-0.77,0.34C69.16,29.62,69.03,29.6,68.88,29.56z"/>
		<path class="st0" d="M76.14,31.45c-0.03-0.18-0.04-0.34-0.04-0.48c0-0.28,0.04-0.62,0.12-1.03l0.04-0.25 c0.37-2.1,0.79-4.2,1.28-6.28c0.7-3.15,1.58-6.02,2.62-8.63c0.86-2.2,1.71-3.9,2.53-5.11c0.21-0.32,0.47-0.57,0.77-0.74 c0.19-0.1,0.37-0.15,0.55-0.15c0.27,0,0.52,0.11,0.76,0.33c0.33,0.38,0.49,0.93,0.49,1.65c0,0.42-0.07,0.96-0.21,1.62l-0.1,0.54 c-0.95,4.04-2.62,8-5,11.88c-0.57,0.92-1.25,1.75-2.05,2.49c-0.14,0.08-0.27,0.12-0.4,0.12c-0.1,0-0.19-0.02-0.27-0.07 c-0.19-0.12-0.29-0.24-0.3-0.36c-0.01-0.12-0.01-0.19-0.01-0.22c0-0.2,0.11-0.37,0.33-0.52c0.61-0.35,1.27-1.01,1.96-1.98 c2.11-3.02,3.63-6.24,4.54-9.67c0.17-0.7,0.27-1.19,0.31-1.46c0.14-0.76,0.21-1.43,0.21-2.01c0-0.38-0.07-0.71-0.21-1.01 c-0.04-0.09-0.09-0.13-0.15-0.13c-0.06,0-0.16,0.09-0.3,0.27l-0.13,0.18c-0.6,0.69-1.11,1.44-1.54,2.24 c-0.43,0.8-0.83,1.61-1.2,2.43l-0.06,0.1c-1.06,2.45-1.9,5.08-2.52,7.89c-0.51,2.53-0.83,4.77-0.97,6.73l-0.01,0.58l0.01,0.39 l0.04,0.19l-0.02-0.03c-0.02-0.02-0.07-0.05-0.14-0.1c-0.07-0.05-0.18-0.1-0.32-0.15c0.69-0.76,1.48-1.83,2.35-3.19l0.64-0.97 c0.91-1.42,1.59-2.38,2.02-2.87c0.28-0.3,0.55-0.45,0.8-0.45c0.14,0,0.27,0.04,0.4,0.13c0.37,0.26,0.59,0.78,0.65,1.56l0.03,0.22 c0.08,1.12,0.3,1.8,0.67,2.04c0.09,0.03,0.19,0.04,0.3,0.04c0.48,0,1.17-0.33,2.08-0.98C86.95,26.07,87.11,26,87.2,26l0.09,0.01 c0.11,0.04,0.16,0.09,0.16,0.15v0.09c0,0.18-0.43,0.54-1.28,1.09c-0.64,0.41-1.19,0.61-1.65,0.61c-0.6,0-1.05-0.3-1.37-0.91 c-0.18-0.44-0.33-1.01-0.45-1.73l-0.09-0.51c-0.04-0.27-0.09-0.4-0.16-0.4c-0.09,0-0.22,0.1-0.4,0.31l-0.54,0.63 c-0.66,0.83-1.26,1.7-1.82,2.59l-1.37,2.31c-0.27,0.5-0.52,0.89-0.76,1.18c-0.24,0.29-0.51,0.44-0.8,0.44 C76.4,31.86,76.19,31.73,76.14,31.45z"/>
		<path class="st0" d="M86.38,28.92l-0.12-0.1l-0.06-0.13c-0.12-0.19-0.18-0.41-0.18-0.66c0-0.29,0.11-0.69,0.34-1.21 c0.34-0.85,0.88-1.62,1.62-2.29c0.6-0.5,1.14-0.74,1.62-0.74c0.23,0,0.44,0.04,0.64,0.13c0.4,0.22,0.71,0.52,0.94,0.91l0.03,0.48 c0,0.41-0.08,0.61-0.25,0.61c-0.15,0-0.39-0.13-0.73-0.4c-0.08-0.16-0.26-0.24-0.55-0.24c-0.31,0-0.61,0.09-0.91,0.28 c-0.54,0.46-0.94,1.01-1.21,1.67c-0.09,0.26-0.13,0.44-0.13,0.54c0,0.08,0.03,0.12,0.09,0.12c0.06,0,0.2-0.07,0.42-0.21l0.19-0.12 c0.74-0.6,1.42-1.28,2.04-2.02c0.48-0.57,0.84-0.89,1.08-0.97c0.24-0.08,0.4-0.12,0.48-0.12c0.27,0,0.5,0.15,0.68,0.46 c0.08,0.19,0.12,0.53,0.12,1.03v0.21c0,0.38,0.08,0.74,0.24,1.1c0.12,0.27,0.32,0.47,0.61,0.61c0.21,0.08,0.42,0.12,0.64,0.12 l0.36-0.01c1.23-0.23,2.38-0.79,3.44-1.7l0.42-0.34c0.15-0.13,0.29-0.19,0.42-0.19c0.19,0,0.29,0.05,0.31,0.14 c0.02,0.09,0.03,0.15,0.03,0.17c0,0.11-0.07,0.23-0.22,0.36l-0.74,0.62c-1.08,0.82-2.28,1.38-3.6,1.68h-0.1 c-0.11,0.02-0.23,0.03-0.36,0.03c-0.38,0-0.79-0.1-1.24-0.3c-0.71-0.4-1.17-1.15-1.37-2.25l-0.02-0.13 c-0.04-0.21-0.06-0.32-0.07-0.33c-0.01-0.01-0.01-0.03-0.01-0.05c0-0.02,0-0.03,0.01-0.03c0.04,0,0.06,0.07,0.06,0.21v0.13 c-0.28,0.29-0.55,0.58-0.8,0.88c-0.53,0.63-1.1,1.21-1.71,1.74c-0.6,0.45-1.12,0.67-1.56,0.67 C86.93,29.26,86.64,29.15,86.38,28.92z"/>
	</g>
	<g>
		<path class="st0" d="M57.07,13.84V2.46h4.17V1H48.99L37.49,34.24l-3.38-9.7c0.5-0.63,0.89-1.37,1.1-2.16 c0.05-0.2,0.1-0.4,0.13-0.6c0.07-0.4,0.09-0.81,0.07-1.22c-0.01-0.2-0.03-0.41-0.07-0.61h-0.78c-0.46,0-0.91,0-1.37,0 c-0.23,0-0.46,0-0.68,0l0,0l0,0l0.76,2.19l0.76,2.19l0.04,0.1l0.04,0.1c-0.48,0.61-1.08,1.11-1.76,1.44 c-2.43,1.2-4.69,0.6-6.93-0.58l8.46,23.95c2.36-6.68,4.68-13.35,6.96-20c2.28-6.66,4.56-13.32,6.82-20l0.59,0.19l-0.07,39.39 h-4.24v1.46h17.29v-1.46h-4.17V37.54c-4.44-2.1-7.51-6.61-7.51-11.85S52.63,15.94,57.07,13.84z"/>
		<path class="st0" d="M24.96,24.06l-1.31-3.77c-1.48,0.42-2.76,1.26-3.76,2.74c-0.14,0.36-0.36,0.59-0.94,0.82v-0.17l-0.01-0.89 c0,0,0,0,0.01,0V8.6l0.55-0.15l3.82,10.88c0,0,0,0,0,0l0.33,0.96c0.82-0.23,1.69-0.33,2.62-0.33c2.09-0.01,4.17-0.01,6.26,0 l-0.4-1.15l-0.06-0.18l0-0.01L25.93,1H11.65v1.46h5.44c0.1,0,0.18,0.7,0.26,2c0.07,1.3,0.12,2.94,0.15,5 c0.01,0.85,0.01,1.75,0.01,2.69c-0.59-0.23-0.81-0.46-0.95-0.82C15,9.04,12.77,8.26,10.17,8.25c-2.77-0.01-5.54,0-8.31,0H1.08 c-0.42,2.38,0.92,4.99,3,6.02c2.44,1.2,4.7,0.59,6.93-0.58c0.69-0.37,1.42-0.71,2.18-0.91c1.71-0.45,3.85-0.38,4.31,1.1 c0,0.83,0,1.7,0.01,2.6c0.02,2.58-0.02,5.16-0.02,7.81v7.82c0,0.87,0.01,1.71,0.01,2.53c0,0-0.01,0-0.01-0.01v1.74 c0.01,0.03,0.02,0.05,0.03,0.07c0,0,0.01,0.86-0.01,2.04c-0.03,1.99-0.03,3.68-0.08,5.08c-0.05,1.4-0.08,2.32-0.13,2.76 c-0.15,1.33-0.69,2.13-1.65,2.33c-0.96,0.2-2.04,0.27-3.27,0.27h-0.72v1.46H25.4v-1.46h-0.73c-0.59,0-1.19,0-1.81,0 c-0.61,0-1.2-0.08-1.77-0.23c-0.57-0.15-1.04-0.38-1.44-0.7c-0.39-0.32-0.57-0.78-0.62-1.37c-0.1-0.39-0.1-0.89-0.1-1.48 c0-0.59,0-1.6,0-3.02V25.57c0.47-1.47,2.6-1.53,4.3-1.08c0.75,0.2,1.48,0.54,2.18,0.91c0,0,0,0,0,0L24.96,24.06 C24.96,24.06,24.96,24.06,24.96,24.06z"/>
	</g>
</g>
</svg>
